<mxfile host="www.draw.io" modified="2019-12-18T04:55:47.049Z" agent="Mozilla/5.0 (Windows NT 10.0; Win64; x64) AppleWebKit/537.36 (KHTML, like Gecko) Chrome/78.0.3904.108 Safari/537.36" etag="EvsR4_ZhPNUXdswTGno0" version="12.4.3" type="github" pages="2">
  <diagram id="gadblJnj5Tt_UmMkEbbo" name="MySQL逻辑架构图">
    <mxGraphModel dx="1422" dy="745" grid="1" gridSize="10" guides="1" tooltips="1" connect="1" arrows="1" fold="1" page="1" pageScale="1" pageWidth="980" pageHeight="690" math="0" shadow="0">
      <root>
        <mxCell id="0"/>
        <mxCell id="1" parent="0"/>
        <mxCell id="CwbDp-02YgCikObYp3pu-44" value="" style="group" parent="1" vertex="1" connectable="0">
          <mxGeometry x="270" y="110" width="440" height="470" as="geometry"/>
        </mxCell>
        <mxCell id="CwbDp-02YgCikObYp3pu-43" value="" style="group" parent="CwbDp-02YgCikObYp3pu-44" vertex="1" connectable="0">
          <mxGeometry width="440" height="470" as="geometry"/>
        </mxCell>
        <mxCell id="CwbDp-02YgCikObYp3pu-42" value="" style="group" parent="CwbDp-02YgCikObYp3pu-43" vertex="1" connectable="0">
          <mxGeometry width="440" height="470" as="geometry"/>
        </mxCell>
        <mxCell id="CwbDp-02YgCikObYp3pu-12" value="" style="group;dashed=1;dashPattern=1 1;fillColor=#dae8fc;strokeColor=#6c8ebf;" parent="CwbDp-02YgCikObYp3pu-42" vertex="1" connectable="0">
          <mxGeometry width="440" height="470" as="geometry"/>
        </mxCell>
        <mxCell id="CwbDp-02YgCikObYp3pu-14" value="" style="whiteSpace=wrap;html=1;aspect=fixed;dashed=1;" parent="CwbDp-02YgCikObYp3pu-12" vertex="1">
          <mxGeometry x="-60" y="-30" width="500" height="500" as="geometry"/>
        </mxCell>
        <mxCell id="CwbDp-02YgCikObYp3pu-2" value="连接器" style="rounded=0;whiteSpace=wrap;html=1;" parent="CwbDp-02YgCikObYp3pu-12" vertex="1">
          <mxGeometry x="133" y="-20" width="120" height="60" as="geometry"/>
        </mxCell>
        <mxCell id="CwbDp-02YgCikObYp3pu-5" value="词法分析器" style="rounded=0;whiteSpace=wrap;html=1;" parent="CwbDp-02YgCikObYp3pu-12" vertex="1">
          <mxGeometry x="225" y="100" width="120" height="60" as="geometry"/>
        </mxCell>
        <mxCell id="CwbDp-02YgCikObYp3pu-6" value="" style="edgeStyle=orthogonalEdgeStyle;rounded=0;orthogonalLoop=1;jettySize=auto;html=1;curved=1;" parent="CwbDp-02YgCikObYp3pu-12" source="CwbDp-02YgCikObYp3pu-2" target="CwbDp-02YgCikObYp3pu-5" edge="1">
          <mxGeometry relative="1" as="geometry"/>
        </mxCell>
        <mxCell id="CwbDp-02YgCikObYp3pu-45" style="edgeStyle=orthogonalEdgeStyle;curved=1;rounded=0;orthogonalLoop=1;jettySize=auto;html=1;exitX=0;exitY=0.25;exitDx=0;exitDy=0;entryX=1;entryY=0.5;entryDx=0;entryDy=0;fontSize=9;" parent="CwbDp-02YgCikObYp3pu-12" source="CwbDp-02YgCikObYp3pu-5" target="CwbDp-02YgCikObYp3pu-3" edge="1">
          <mxGeometry relative="1" as="geometry"/>
        </mxCell>
        <mxCell id="CwbDp-02YgCikObYp3pu-7" value="查询优化器" style="rounded=0;whiteSpace=wrap;html=1;" parent="CwbDp-02YgCikObYp3pu-12" vertex="1">
          <mxGeometry x="225" y="180" width="120" height="60" as="geometry"/>
        </mxCell>
        <mxCell id="CwbDp-02YgCikObYp3pu-8" value="" style="edgeStyle=orthogonalEdgeStyle;rounded=0;orthogonalLoop=1;jettySize=auto;html=1;" parent="CwbDp-02YgCikObYp3pu-12" source="CwbDp-02YgCikObYp3pu-5" target="CwbDp-02YgCikObYp3pu-7" edge="1">
          <mxGeometry relative="1" as="geometry"/>
        </mxCell>
        <mxCell id="CwbDp-02YgCikObYp3pu-20" style="edgeStyle=orthogonalEdgeStyle;curved=1;rounded=0;orthogonalLoop=1;jettySize=auto;html=1;exitX=0.25;exitY=1;exitDx=0;exitDy=0;" parent="CwbDp-02YgCikObYp3pu-12" source="CwbDp-02YgCikObYp3pu-9" target="CwbDp-02YgCikObYp3pu-11" edge="1">
          <mxGeometry relative="1" as="geometry"/>
        </mxCell>
        <mxCell id="CwbDp-02YgCikObYp3pu-9" value="执行器" style="rounded=0;whiteSpace=wrap;html=1;" parent="CwbDp-02YgCikObYp3pu-12" vertex="1">
          <mxGeometry x="225" y="270" width="120" height="60" as="geometry"/>
        </mxCell>
        <mxCell id="CwbDp-02YgCikObYp3pu-10" value="" style="edgeStyle=orthogonalEdgeStyle;rounded=0;orthogonalLoop=1;jettySize=auto;html=1;" parent="CwbDp-02YgCikObYp3pu-12" source="CwbDp-02YgCikObYp3pu-7" target="CwbDp-02YgCikObYp3pu-9" edge="1">
          <mxGeometry relative="1" as="geometry"/>
        </mxCell>
        <mxCell id="CwbDp-02YgCikObYp3pu-3" value="查询缓存" style="rounded=0;whiteSpace=wrap;html=1;" parent="CwbDp-02YgCikObYp3pu-12" vertex="1">
          <mxGeometry x="23" y="180" width="120" height="60" as="geometry"/>
        </mxCell>
        <mxCell id="CwbDp-02YgCikObYp3pu-4" value="" style="edgeStyle=orthogonalEdgeStyle;rounded=0;orthogonalLoop=1;jettySize=auto;html=1;curved=1;" parent="CwbDp-02YgCikObYp3pu-12" source="CwbDp-02YgCikObYp3pu-2" target="CwbDp-02YgCikObYp3pu-3" edge="1">
          <mxGeometry relative="1" as="geometry"/>
        </mxCell>
        <mxCell id="CwbDp-02YgCikObYp3pu-11" value="" style="rounded=0;whiteSpace=wrap;html=1;" parent="CwbDp-02YgCikObYp3pu-12" vertex="1">
          <mxGeometry x="-5" y="380" width="390" height="80" as="geometry"/>
        </mxCell>
        <mxCell id="CwbDp-02YgCikObYp3pu-25" value="MySQL逻辑架构图" style="text;html=1;strokeColor=none;fillColor=none;align=center;verticalAlign=middle;whiteSpace=wrap;rounded=0;dashed=1;" parent="CwbDp-02YgCikObYp3pu-12" vertex="1">
          <mxGeometry x="-60" y="-30" width="130" height="20" as="geometry"/>
        </mxCell>
        <mxCell id="CwbDp-02YgCikObYp3pu-26" value="" style="endArrow=none;dashed=1;html=1;exitX=0;exitY=0.75;exitDx=0;exitDy=0;entryX=1;entryY=0.75;entryDx=0;entryDy=0;" parent="CwbDp-02YgCikObYp3pu-12" source="CwbDp-02YgCikObYp3pu-14" target="CwbDp-02YgCikObYp3pu-14" edge="1">
          <mxGeometry width="50" height="50" relative="1" as="geometry">
            <mxPoint x="-60" y="540" as="sourcePoint"/>
            <mxPoint x="-10" y="490" as="targetPoint"/>
          </mxGeometry>
        </mxCell>
        <mxCell id="CwbDp-02YgCikObYp3pu-29" value="通用层" style="text;html=1;strokeColor=none;fillColor=none;align=center;verticalAlign=middle;whiteSpace=wrap;rounded=0;dashed=1;" parent="CwbDp-02YgCikObYp3pu-12" vertex="1">
          <mxGeometry x="370" y="320" width="70" height="20" as="geometry"/>
        </mxCell>
        <mxCell id="CwbDp-02YgCikObYp3pu-30" value="引擎层" style="text;html=1;strokeColor=none;fillColor=none;align=center;verticalAlign=middle;whiteSpace=wrap;rounded=0;dashed=1;" parent="CwbDp-02YgCikObYp3pu-12" vertex="1">
          <mxGeometry x="385" y="350" width="40" height="20" as="geometry"/>
        </mxCell>
        <mxCell id="CwbDp-02YgCikObYp3pu-34" value="&lt;div&gt;&lt;span style=&quot;font-size: 15pt ; font-family: &amp;#34;microsoftsansserifregular&amp;#34; ; color: rgb(53 , 53 , 53)&quot;&gt;InnoDB&lt;/span&gt;&lt;/div&gt;" style="rounded=0;whiteSpace=wrap;html=1;dashed=1;" parent="CwbDp-02YgCikObYp3pu-12" vertex="1">
          <mxGeometry y="390" width="120" height="60" as="geometry"/>
        </mxCell>
        <mxCell id="CwbDp-02YgCikObYp3pu-35" value="&lt;div&gt;&lt;span style=&quot;font-size: 15pt ; font-family: &amp;#34;microsoftsansserifregular&amp;#34; ; color: rgb(53 , 53 , 53)&quot;&gt;MyISAM&lt;/span&gt;&lt;/div&gt;" style="rounded=0;whiteSpace=wrap;html=1;dashed=1;" parent="CwbDp-02YgCikObYp3pu-12" vertex="1">
          <mxGeometry x="130" y="390" width="120" height="60" as="geometry"/>
        </mxCell>
        <mxCell id="CwbDp-02YgCikObYp3pu-36" value="&lt;div&gt;&lt;span style=&quot;font-size: 15pt ; font-family: &amp;#34;microsoftsansserifregular&amp;#34; ; color: rgb(53 , 53 , 53)&quot;&gt;Memory&lt;/span&gt;&lt;/div&gt;" style="rounded=0;whiteSpace=wrap;html=1;dashed=1;" parent="CwbDp-02YgCikObYp3pu-12" vertex="1">
          <mxGeometry x="253" y="390" width="120" height="60" as="geometry"/>
        </mxCell>
        <mxCell id="CwbDp-02YgCikObYp3pu-39" value="&lt;ol&gt;&lt;li&gt;建立连接&lt;/li&gt;&lt;li&gt;获取权限&lt;/li&gt;&lt;li&gt;维持和管理连接&lt;/li&gt;&lt;/ol&gt;" style="text;html=1;align=left;verticalAlign=middle;resizable=0;points=[];;autosize=1;fontSize=9;" parent="CwbDp-02YgCikObYp3pu-12" vertex="1">
          <mxGeometry x="243" y="-20" width="140" height="60" as="geometry"/>
        </mxCell>
      </root>
    </mxGraphModel>
  </diagram>
  <diagram id="g0Ue_K5eqxOlgHs5NSxx" name="Page-2">
    <mxGraphModel dx="1185" dy="621" grid="1" gridSize="10" guides="1" tooltips="1" connect="1" arrows="1" fold="1" page="1" pageScale="1" pageWidth="980" pageHeight="690" math="0" shadow="0">
      <root>
        <mxCell id="-k-ppYvRBlARwpMbgfiy-0"/>
        <mxCell id="-k-ppYvRBlARwpMbgfiy-1" parent="-k-ppYvRBlARwpMbgfiy-0"/>
        <mxCell id="-k-ppYvRBlARwpMbgfiy-2" value="InnoDB引擎" style="swimlane;html=1;childLayout=stackLayout;resizeParent=1;resizeParentMax=0;startSize=20;" vertex="1" parent="-k-ppYvRBlARwpMbgfiy-1">
          <mxGeometry x="40" y="50" width="240" height="440" as="geometry"/>
        </mxCell>
        <mxCell id="-k-ppYvRBlARwpMbgfiy-3" value="事务A" style="swimlane;html=1;startSize=20;" vertex="1" parent="-k-ppYvRBlARwpMbgfiy-2">
          <mxGeometry y="20" width="120" height="420" as="geometry">
            <mxRectangle y="20" width="30" height="460" as="alternateBounds"/>
          </mxGeometry>
        </mxCell>
        <mxCell id="-k-ppYvRBlARwpMbgfiy-6" value="启动事务查询得到值 1" style="rounded=0;whiteSpace=wrap;html=1;" vertex="1" parent="-k-ppYvRBlARwpMbgfiy-3">
          <mxGeometry x="5" y="40" width="110" height="30" as="geometry"/>
        </mxCell>
        <mxCell id="-k-ppYvRBlARwpMbgfiy-7" value="查询得到值V1" style="rounded=0;whiteSpace=wrap;html=1;" vertex="1" parent="-k-ppYvRBlARwpMbgfiy-3">
          <mxGeometry x="5" y="90" width="110" height="30" as="geometry"/>
        </mxCell>
        <mxCell id="-k-ppYvRBlARwpMbgfiy-8" value="" style="edgeStyle=orthogonalEdgeStyle;rounded=0;orthogonalLoop=1;jettySize=auto;html=1;" edge="1" parent="-k-ppYvRBlARwpMbgfiy-3" source="-k-ppYvRBlARwpMbgfiy-6" target="-k-ppYvRBlARwpMbgfiy-7">
          <mxGeometry relative="1" as="geometry"/>
        </mxCell>
        <mxCell id="-k-ppYvRBlARwpMbgfiy-9" value="查询得到值V2" style="rounded=0;whiteSpace=wrap;html=1;" vertex="1" parent="-k-ppYvRBlARwpMbgfiy-3">
          <mxGeometry x="5" y="140" width="110" height="30" as="geometry"/>
        </mxCell>
        <mxCell id="-k-ppYvRBlARwpMbgfiy-10" value="" style="edgeStyle=orthogonalEdgeStyle;rounded=0;orthogonalLoop=1;jettySize=auto;html=1;" edge="1" parent="-k-ppYvRBlARwpMbgfiy-3" source="-k-ppYvRBlARwpMbgfiy-7" target="-k-ppYvRBlARwpMbgfiy-9">
          <mxGeometry relative="1" as="geometry"/>
        </mxCell>
        <mxCell id="-k-ppYvRBlARwpMbgfiy-11" value="提交事务A" style="rounded=0;whiteSpace=wrap;html=1;" vertex="1" parent="-k-ppYvRBlARwpMbgfiy-3">
          <mxGeometry x="5" y="330" width="110" height="30" as="geometry"/>
        </mxCell>
        <mxCell id="-k-ppYvRBlARwpMbgfiy-12" value="" style="edgeStyle=orthogonalEdgeStyle;rounded=0;orthogonalLoop=1;jettySize=auto;html=1;" edge="1" parent="-k-ppYvRBlARwpMbgfiy-3" source="-k-ppYvRBlARwpMbgfiy-9" target="-k-ppYvRBlARwpMbgfiy-11">
          <mxGeometry relative="1" as="geometry"/>
        </mxCell>
        <mxCell id="-k-ppYvRBlARwpMbgfiy-13" value="查询得到值V3" style="rounded=0;whiteSpace=wrap;html=1;" vertex="1" parent="-k-ppYvRBlARwpMbgfiy-3">
          <mxGeometry x="5" y="380" width="110" height="30" as="geometry"/>
        </mxCell>
        <mxCell id="-k-ppYvRBlARwpMbgfiy-15" style="edgeStyle=orthogonalEdgeStyle;rounded=0;orthogonalLoop=1;jettySize=auto;html=1;exitX=0.75;exitY=1;exitDx=0;exitDy=0;entryX=0.5;entryY=0;entryDx=0;entryDy=0;" edge="1" parent="-k-ppYvRBlARwpMbgfiy-3" source="-k-ppYvRBlARwpMbgfiy-11" target="-k-ppYvRBlARwpMbgfiy-13">
          <mxGeometry relative="1" as="geometry"/>
        </mxCell>
        <mxCell id="-k-ppYvRBlARwpMbgfiy-4" value="事务B" style="swimlane;html=1;startSize=20;" vertex="1" parent="-k-ppYvRBlARwpMbgfiy-2">
          <mxGeometry x="120" y="20" width="120" height="420" as="geometry"/>
        </mxCell>
        <mxCell id="-k-ppYvRBlARwpMbgfiy-16" value="启动事务" style="rounded=0;whiteSpace=wrap;html=1;" vertex="1" parent="-k-ppYvRBlARwpMbgfiy-4">
          <mxGeometry x="5" y="40" width="110" height="30" as="geometry"/>
        </mxCell>
        <mxCell id="-k-ppYvRBlARwpMbgfiy-18" value="查询得到值1" style="rounded=0;whiteSpace=wrap;html=1;" vertex="1" parent="-k-ppYvRBlARwpMbgfiy-4">
          <mxGeometry x="5" y="180" width="110" height="30" as="geometry"/>
        </mxCell>
        <mxCell id="-k-ppYvRBlARwpMbgfiy-19" value="" style="edgeStyle=orthogonalEdgeStyle;rounded=0;orthogonalLoop=1;jettySize=auto;html=1;" edge="1" parent="-k-ppYvRBlARwpMbgfiy-4" source="-k-ppYvRBlARwpMbgfiy-16" target="-k-ppYvRBlARwpMbgfiy-18">
          <mxGeometry relative="1" as="geometry"/>
        </mxCell>
        <mxCell id="-k-ppYvRBlARwpMbgfiy-20" value="将1&amp;nbsp;改成 2" style="rounded=0;whiteSpace=wrap;html=1;" vertex="1" parent="-k-ppYvRBlARwpMbgfiy-4">
          <mxGeometry x="5" y="230" width="110" height="30" as="geometry"/>
        </mxCell>
        <mxCell id="-k-ppYvRBlARwpMbgfiy-21" value="" style="edgeStyle=orthogonalEdgeStyle;rounded=0;orthogonalLoop=1;jettySize=auto;html=1;" edge="1" parent="-k-ppYvRBlARwpMbgfiy-4" source="-k-ppYvRBlARwpMbgfiy-18" target="-k-ppYvRBlARwpMbgfiy-20">
          <mxGeometry relative="1" as="geometry"/>
        </mxCell>
        <mxCell id="-k-ppYvRBlARwpMbgfiy-22" value="提交事务B" style="rounded=0;whiteSpace=wrap;html=1;" vertex="1" parent="-k-ppYvRBlARwpMbgfiy-4">
          <mxGeometry x="5" y="280" width="110" height="30" as="geometry"/>
        </mxCell>
        <mxCell id="-k-ppYvRBlARwpMbgfiy-23" value="" style="edgeStyle=orthogonalEdgeStyle;rounded=0;orthogonalLoop=1;jettySize=auto;html=1;" edge="1" parent="-k-ppYvRBlARwpMbgfiy-4" source="-k-ppYvRBlARwpMbgfiy-20" target="-k-ppYvRBlARwpMbgfiy-22">
          <mxGeometry relative="1" as="geometry"/>
        </mxCell>
      </root>
    </mxGraphModel>
  </diagram>
</mxfile>
